<?xml version="1.0" encoding="UTF-8" standalone="no"?>
<!-- Created with Inkscape (http://www.inkscape.org/) -->

<svg
   width="33.384998mm"
   height="33.384998mm"
   viewBox="0 0 33.384998 33.384998"
   version="1.1"
   id="svg1"
   inkscape:version="1.3.2 (091e20ef0f, 2023-11-25)"
   sodipodi:docname="ntfy-nobg.svg"
   xmlns:inkscape="http://www.inkscape.org/namespaces/inkscape"
   xmlns:sodipodi="http://sodipodi.sourceforge.net/DTD/sodipodi-0.dtd"
   xmlns:xlink="http://www.w3.org/1999/xlink"
   xmlns="http://www.w3.org/2000/svg"
   xmlns:svg="http://www.w3.org/2000/svg">
  <sodipodi:namedview
     id="namedview1"
     pagecolor="#505050"
     bordercolor="#eeeeee"
     borderopacity="1"
     inkscape:showpageshadow="0"
     inkscape:pageopacity="0"
     inkscape:pagecheckerboard="0"
     inkscape:deskcolor="#d1d1d1"
     inkscape:document-units="mm"
     inkscape:zoom="2.8284271"
     inkscape:cx="52.502678"
     inkscape:cy="95.636192"
     inkscape:window-width="1920"
     inkscape:window-height="1022"
     inkscape:window-x="0"
     inkscape:window-y="30"
     inkscape:window-maximized="1"
     inkscape:current-layer="layer1-5" />
  <defs
     id="defs1">
    <linearGradient
       inkscape:collect="always"
       xlink:href="#linearGradient28858-5"
       id="linearGradient3255"
       x1="160.72209"
       y1="128.53317"
       x2="168.41153"
       y2="134.32626"
       gradientUnits="userSpaceOnUse"
       gradientTransform="matrix(3.7495873,0,0,3.7495873,-541.79055,-384.76452)" />
    <linearGradient
       inkscape:collect="always"
       id="linearGradient28858-5">
      <stop
         style="stop-color:#348878;stop-opacity:1"
         offset="0"
         id="stop28854-3" />
      <stop
         style="stop-color:#56bda8;stop-opacity:1"
         offset="1"
         id="stop28856-5" />
    </linearGradient>
  </defs>
  <g
     inkscape:label="Layer 1"
     inkscape:groupmode="layer"
     id="layer1">
    <g
       inkscape:label="foreground"
       inkscape:groupmode="layer"
       id="layer1-5"
       transform="translate(-59.392817,-93.91999)"
       style="display:inline">
      <path
         style="color:#000000;display:inline;fill:url(#linearGradient3255);stroke:none;stroke-width:2.49558;-inkscape-stroke:none"
         d="M 88.200706,98.142804 H 64.918622 c -1.600657,0 -2.910245,1.235977 -2.910245,2.746606 l 0.02224,18.6016 -0.434711,2.5057 6.231592,-1.88118 h 20.371766 c 1.600658,0 2.910282,-1.23597 2.910282,-2.74664 v -16.47948 c 0,-1.510629 -1.309624,-2.746606 -2.910282,-2.746606 z"
         id="path7368" />
      <path
         id="path2498"
         style="color:#000000;display:inline;fill:#ffffff;stroke:none;stroke-width:0.510945;-inkscape-stroke:none"
         d="m 64.48243,96.75399 c -2.425909,0 -4.504118,1.908863 -4.504118,4.33565 v 0.002 l 0.02377,18.88308 -0.609266,4.49585 8.284766,-2.2009 h 20.595643 c 2.425904,0 4.504118,-1.91141 4.504118,-4.33823 v -16.84187 c 0,-2.426093 -2.077061,-4.334524 -4.502052,-4.33565 h -0.0021 z m 0,3.060278 h 23.790796 0.0021 c 0.852357,8.74e-4 1.441772,0.620952 1.441772,1.275372 v 16.84187 c 0,0.65498 -0.590454,1.27537 -1.443839,1.27537 h -21.04476 l -4.209046,1.27176 0.04289,-0.24805 -0.02325,-19.14095 c 0,-0.65493 0.589951,-1.275372 1.443322,-1.275372 z" />
      <g
         id="path1011-6-2"
         transform="matrix(1.4536603,0,0,1.728146,-23.97473,-87.603157)"
         style="font-size:8.48274px;font-family:sans-serif;letter-spacing:0px;word-spacing:0px;display:inline;fill:#000000;stroke:none;stroke-width:0.525121">
        <path
           style="color:#000000;-inkscape-font-specification:'JetBrains Mono, Bold';fill:#ffffff;stroke:none;-inkscape-stroke:none"
           d="m 62.57046,116.77004 v -1.31201 l 3.280018,-1.45904 q 0.158346,-0.0679 0.305381,-0.1018 0.158346,-0.0452 0.282761,-0.0679 0.135725,-0.0113 0.271449,-0.0226 v -0.0905 q -0.135724,-0.0113 -0.271449,-0.0452 -0.124415,-0.0226 -0.282761,-0.0566 -0.147035,-0.0452 -0.305381,-0.1131 l -3.280018,-1.45904 v -1.32332 l 5.067063,2.31863 v 1.4138 z"
           id="path7553" />
        <path
           style="color:#000000;-inkscape-font-specification:'JetBrains Mono, Bold';fill:#ffffff;stroke:none;-inkscape-stroke:none"
           d="m 62.308594,110.31055 v 1.90234 l 3.4375,1.5293 c 0.0073,0.003 0.0142,0.005 0.02148,0.008 -0.0073,0.003 -0.0142,0.005 -0.02148,0.008 l -3.4375,1.5293 v 1.89258 l 0.371093,-0.16992 5.220704,-2.39063 v -1.75 z m 0.52539,0.8164 4.541016,2.08008 v 1.07617 l -4.541016,2.07813 v -0.73242 l 3.119141,-1.38868 0.0039,-0.002 c 0.09141,-0.0389 0.178343,-0.0676 0.257813,-0.0859 h 0.0059 l 0.0078,-0.002 c 0.09483,-0.0271 0.176055,-0.0474 0.246093,-0.0606 l 0.498047,-0.041 v -0.57422 l -0.240234,-0.0195 c -0.07606,-0.006 -0.153294,-0.0198 -0.230469,-0.0391 l -0.0078,-0.002 -0.0078,-0.002 c -0.07608,-0.0138 -0.16556,-0.0318 -0.263672,-0.0527 -0.08398,-0.0262 -0.172736,-0.058 -0.265625,-0.0977 l -0.0039,-0.002 -3.119141,-1.38868 z"
           id="path7555" />
      </g>
      <g
         id="g1224"
         transform="matrix(1.4493527,0,0,1.6641427,-22.956963,-82.555973)"
         style="font-size:8.48274px;font-family:sans-serif;letter-spacing:0px;word-spacing:0px;display:inline;fill:#000000;stroke:none;stroke-width:0.525121">
        <path
           style="color:#000000;-inkscape-font-specification:'JetBrains Mono, Bold';fill:#ffffff;stroke:none;-inkscape-stroke:none"
           d="m 69.17132,117.75404 h 5.428996 v 1.27808 H 69.17132 Z"
           id="path1220" />
        <path
           style="color:#000000;-inkscape-font-specification:'JetBrains Mono, Bold';fill:#ffffff;stroke:none;-inkscape-stroke:none"
           d="m 68.908203,117.49219 v 0.26172 1.54101 h 5.955078 v -1.80273 z m 0.525391,0.52344 h 4.904297 v 0.7539 h -4.904297 z"
           id="path1222" />
      </g>
    </g>
  </g>
</svg>
